PathFileType	4	(X/Y/Z)	/Users/niels/Desktop/University/Third Semester/Perception and Action/Exam/Gymnastics Motion Tracking/Code for Gym Tracking/Analyzed Data/Webcam_Backflip/id7_5_baseline_Sports2D/id7_5_baseline_Sports2D_px_person00.trc
DataRate	CameraRate	NumFrames	NumMarkers	Units	OrigDataRate	OrigDataStartFrame	OrigNumFrames
29.8125	29.8125	12	22	m	29.8125	80	160
Frame#	Time	Hip			RHip			RKnee			RAnkle			RBigToe			RSmallToe			RHeel			LHip			LKnee			LAnkle			LBigToe			LSmallToe			LHeel			Neck			Head			Nose			RShoulder			RElbow			RWrist			LShoulder			LElbow			LWrist		
		X1	Y1	Z1	X2	Y2	Z2	X3	Y3	Z3	X4	Y4	Z4	X5	Y5	Z5	X6	Y6	Z6	X7	Y7	Z7	X8	Y8	Z8	X9	Y9	Z9	X10	Y10	Z10	X11	Y11	Z11	X12	Y12	Z12	X13	Y13	Z13	X14	Y14	Z14	X15	Y15	Z15	X16	Y16	Z16	X17	Y17	Z17	X18	Y18	Z18	X19	Y19	Z19	X20	Y20	Z20	X21	Y21	Z21	X22	Y22	Z22
80	2.683438155136268	0.7468239416493467	-0.5291415596847744	0.0	0.741832987021858	-0.5282450484316988	0.0	0.7862253517509937	-0.6304317714106243	0.0	0.7780757434027735	-0.7387035589915453	0.0	0.8203832397507169	-0.7546606362869009	0.0	0.8113486529610954	-0.7594636737656433	0.0	0.7684824167528614	-0.7535110795542104	0.0	0.7533514242301645	-0.5263325442876313	0.0	0.7716158241235391	-0.6347227042960916	0.0	0.7690703055982542	-0.7353450424286447	0.0	0.8065360120898672	-0.7504100729575619	0.0	0.7980909112149754	-0.747792820314136	0.0	0.7598136074686107	-0.7500503202718315	0.0	0.7576106261561731	-0.38758228667591704	0.0	0.7700279044400594	-0.32031426649268147	0.0	0.7887220027854984	-0.3515974536914506	0.0	0.7466851890448822	-0.40365605988340575	0.0	0.7111267190986675	-0.46543778047352363	0.0	0.6759093403465467	-0.5186897617354363	0.0	0.757265440634935	-0.4009261332831214	0.0	0.718218049333508	-0.4311964239962488	0.0	0.691701051912738	-0.48227838212864244	0.0
81	2.716981132075471	0.7517076826423497	-0.5451805620565428	0.0	0.7468775372519698	-0.5450363004104962	0.0	0.7979271673600796	-0.6426184548980682	0.0	0.7954424598108049	-0.7508033959648639	0.0	0.8376799529969274	-0.7649857862635118	0.0	0.8291927563361365	-0.7696695792701966	0.0	0.7867364386869682	-0.765522270579029	0.0	0.7571963257386435	-0.5432240240566752	0.0	0.7730439680114768	-0.6507711406002978	0.0	0.7689266093078697	-0.7500393870270144	0.0	0.8062506450561052	-0.7616243350661476	0.0	0.7945986489826474	-0.7596142569163649	0.0	0.7600112393441495	-0.7644448513985431	0.0	0.7666341486065454	-0.40351897053903796	0.0	0.780958712465953	-0.3365554324590687	0.0	0.7981954639472186	-0.36844171695346706	0.0	0.7542450848648173	-0.42087104737068287	0.0	0.7184230811022462	-0.4828455471260535	0.0	0.6802412277544643	-0.5371511443380819	0.0	0.766108642111083	-0.4173993070105333	0.0	0.730410212879644	-0.4386569955186335	0.0	0.7028356206916346	-0.47569845909690806	0.0
82	2.7505241090146746	0.7569840701378626	-0.5630929724195272	0.0	0.7523277387048946	-0.5637293030870807	0.0	0.8085264936613911	-0.6568294120763476	0.0	0.8082760307424344	-0.7649772773534675	0.0	0.8493978224120086	-0.7777028005972283	0.0	0.8413994716522507	-0.78215243315102	0.0	0.8001102730970372	-0.7793262987154164	0.0	0.761358277079029	-0.5619922144303476	0.0	0.775010732372134	-0.6683181549683496	0.0	0.7690676354283515	-0.7665268910745359	0.0	0.805820952039732	-0.775201789185887	0.0	0.7917475358556595	-0.7734709754089217	0.0	0.7605429776639441	-0.7804745072935866	0.0	0.7751021625666672	-0.4210793469553474	0.0	0.7908419559288031	-0.3547330022573702	0.0	0.8069891531718445	-0.38716618134557684	0.0	0.7614152383668683	-0.4398619455623568	0.0	0.7262635375793458	-0.5022185411536731	0.0	0.6872746680041383	-0.5568092585130779	0.0	0.7738890241521758	-0.4354493248530843	0.0	0.7416417831185765	-0.44762936197767533	0.0	0.7157193501614642	-0.4693929910590762	0.0
83	2.784067085953878	0.7627265926696926	-0.581463061661203	0.0	0.7583649270260023	-0.5827251512169581	0.0	0.8174798566484566	-0.6721855756364988	0.0	0.8164515026290179	-0.7803465096432117	0.0	0.8555539453092542	-0.791859657950718	0.0	0.848022773839284	-0.7960315703976664	0.0	0.8085508429446754	-0.7940911096634299	0.0	0.7658356216542658	-0.5810692687018775	0.0	0.777342773318716	-0.6858658590167859	0.0	0.7692887284783134	-0.7834366633983436	0.0	0.8051575360257928	-0.7902281283032125	0.0	0.7898404183137924	-0.7883783407361475	0.0	0.761199116437802	-0.7967806030204309	0.0	0.7828122350385927	-0.43890021632445114	0.0	0.7993639483566221	-0.3732663790319192	0.0	0.8149332024246912	-0.4061361489976867	0.0	0.7681289141385956	-0.4590415459050705	0.0	0.7346500069170923	-0.5220100465867956	0.0	0.6970731437850388	-0.5771055252478576	0.0	0.7807655327741322	-0.45378171988988353	0.0	0.752608815462045	-0.46143875841806953	0.0	0.7307447458219096	-0.47243275212837815	0.0
84	2.817610062893081	0.7689257933357702	-0.5986284791086042	0.0	0.7649897878904163	-0.6002326440274737	0.0	0.8242622846979041	-0.6874581532156147	0.0	0.8205791588336215	-0.7955596662258059	0.0	0.8571201672291952	-0.8060503133659271	0.0	0.8500059280059948	-0.810003038135	0.0	0.8128175736697593	-0.8085375625558817	0.0	0.7707216164893175	-0.598706198266732	0.0	0.77969784656888	-0.7017651681659717	0.0	0.7694068258883938	-0.7991728379460153	0.0	0.8044975943398691	-0.8051710965299905	0.0	0.7890868614788786	-0.8028091941034846	0.0	0.7618233393292032	-0.8118249416838801	0.0	0.7897109391926487	-0.45537184857088503	0.0	0.8063858740496342	-0.3903426499883181	0.0	0.8219350863005516	-0.4234830415130803	0.0	0.7743406440270125	-0.47656662944125905	0.0	0.7434549722612633	-0.5403637343255173	0.0	0.7097169280518983	-0.5966816096183303	0.0	0.7873414752616813	-0.470925623622022	0.0	0.7645812102549228	-0.48189324557573765	0.0	0.7489397435414236	-0.49064502339721555	0.0
85	2.8511530398322846	0.7754110694800035	-0.6128418566635079	0.0	0.7720218190727874	-0.6144625658845463	0.0	0.828638068422842	-0.7010891269715176	0.0	0.8217569084940435	-0.8089790157624664	0.0	0.8556862940126828	-0.8186343286305674	0.0	0.8488377603796246	-0.82255509261938	0.0	0.8141096240348079	-0.821139072175786	0.0	0.7760299986285216	-0.6131147066731424	0.0	0.7817957284664134	-0.7144496851524998	0.0	0.7693035991995492	-0.8120224191100863	0.0	0.8042176639531443	-0.8181932910731908	0.0	0.7896670320927689	-0.8149404909087439	0.0	0.7622250359828527	-0.8239836232151988	0.0	0.795897596027035	-0.46876808629576716	0.0	0.81199890436079	-0.4042016312268713	0.0	0.8279915339556411	-0.43740707928615385	0.0	0.7800848446208108	-0.49059059975464614	0.0	0.7524842140269206	-0.5553745373480751	0.0	0.7251700559043998	-0.6135020417074403	0.0	0.794187182769469	-0.48522637102791133	0.0	0.7783500725248589	-0.5071576699657916	0.0	0.7709226408457205	-0.5223347995998173	0.0
86	2.884696016771488	0.7818762596914239	-0.6224732705498549	0.0	0.7791488805777709	-0.6238310307466177	0.0	0.8308555569730736	-0.7113654204543349	0.0	0.8211771555979429	-0.818944403783116	0.0	0.8528239950408564	-0.8281097552612593	0.0	0.8460597513703426	-0.8322442128967459	0.0	0.8136716225534679	-0.8304390156933545	0.0	0.7815967895905862	-0.622654346043551	0.0	0.7835865278278324	-0.7225945103752973	0.0	0.7689527082337572	-0.8203366365938632	0.0	0.8045442909876261	-0.8275907769512995	0.0	0.7915201841834337	-0.823160229729419	0.0	0.7622066109422183	-0.8317750042471488	0.0	0.8015605873006311	-0.4775006920202169	0.0	0.8164950115275021	-0.41337333672507154	0.0	0.8331574608952965	-0.4464542949618469	0.0	0.7854520011329238	-0.49957512062346476	0.0	0.7615292540779289	-0.5654087453196659	0.0	0.7431016795476351	-0.6253146914669843	0.0	0.8014627348054906	-0.4950504945816348	0.0	0.7934103502063591	-0.5319940038059497	0.0	0.795434401037214	-0.5586917211197888	0.0
87	2.918238993710691	0.7880528472747429	-0.6262320567308112	0.0	0.7860386373195279	-0.6271281608914697	0.0	0.8315951530745166	-0.7167724285331399	0.0	0.8198698673083249	-0.8241101512057704	0.0	0.8496987240953096	-0.8333237371464018	0.0	0.8429876248467125	-0.8378297134691952	0.0	0.8125579495092863	-0.835316992748395	0.0	0.7872571247663054	-0.6260354591279272	0.0	0.7853467685758198	-0.7252490937807511	0.0	0.7684513110417883	-0.8228383455368349	0.0	0.8053965077555688	-0.8320103122462986	0.0	0.7940665717012899	-0.8264121878613616	0.0	0.7617164190055823	-0.834125984581546	0.0	0.8068686628175189	-0.4804859916932061	0.0	0.8202566377062352	-0.416815286025478	0.0	0.8374981169046578	-0.44971994219009864	0.0	0.7905151633909104	-0.5025765464676313	0.0	0.7703817007199631	-0.5694242545502045	0.0	0.7627891805606835	-0.6302732357954545	0.0	0.8089131151829839	-0.4991446554646864	0.0	0.8081909952301563	-0.5502696643113091	0.0	0.819540605642268	-0.5886479325535108	0.0
88	2.9517819706498947	0.7939080707228929	-0.6234898709318215	0.0	0.7925123246659139	-0.6238096251520769	0.0	0.8317286408159933	-0.7164312213339349	0.0	0.8186091064591517	-0.8238025884910121	0.0	0.8471655759108991	-0.833539251891377	0.0	0.8406034529140697	-0.8383899639213911	0.0	0.8114776437323681	-0.835140348554233	0.0	0.7930438577669678	-0.6226505051723239	0.0	0.7877172980774743	-0.7220327371412966	0.0	0.768055228063845	-0.8189596643485322	0.0	0.8064861283799221	-0.8305504828825082	0.0	0.7964506259538695	-0.8241886338147755	0.0	0.7609660046935471	-0.8305110845268908	0.0	0.8118813437758536	-0.4773859311040068	0.0	0.8235907500714268	-0.4140568143126033	0.0	0.8410654001803168	-0.44694836290867906	0.0	0.7952959876930142	-0.4993854051516031	0.0	0.7788564960302433	-0.5671616264304263	0.0	0.7831837726193467	-0.627494612686439	0.0	0.8161575199557672	-0.49695325412061975	0.0	0.8211750528507414	-0.5581553702144441	0.0	0.840567863435555	-0.605121356221783	0.0
89	2.985324947589098	0.7996661038776768	-0.6145707305257765	0.0	0.798656049576235	-0.6143133419699109	0.0	0.8321158699307315	-0.7103472697878487	0.0	0.8178948853175203	-0.8181326625538953	0.0	0.8459545922753914	-0.828703054591767	0.0	0.8394910999463566	-0.8336932307924139	0.0	0.8107671992833213	-0.8298190239221865	0.0	0.7991494099242529	-0.6129330936251662	0.0	0.7915394085259289	-0.7133172041505607	0.0	0.7681536863654268	-0.8090109541061805	0.0	0.8076022809739498	-0.8231858492199695	0.0	0.7981985463356239	-0.816609106070242	0.0	0.760388498661683	-0.8210452087951152	0.0	0.8165762080671751	-0.4686362907930237	0.0	0.8266564706109663	-0.40538405327353816	0.0	0.8439041872584249	-0.43856770715222854	0.0	0.7997862500722717	-0.49051500933617076	0.0	0.7868046267089678	-0.5591162617419678	0.0	0.8031047011606526	-0.6173333853888514	0.0	0.8229562902036119	-0.4887637504393072	0.0	0.8316991421821255	-0.5553385429936342	0.0	0.8573819085213673	-0.6071855684445794	0.0
90	3.018867924528301	0.8056250207454346	-0.6007051749037887	0.0	0.8047312646263468	-0.6000058809343645	0.0	0.833517853158452	-0.6993294099829471	0.0	0.817993897654122	-0.8078032205314142	0.0	0.8465517187244012	-0.8196552879463782	0.0	0.8398654130570891	-0.8244845791963963	0.0	0.8105465961603113	-0.8198137277772005	0.0	0.8057552327447479	-0.5983237656127214	0.0	0.7974798989010415	-0.7002018968608356	0.0	0.7691814813300811	-0.794098407093094	0.0	0.8088606623414698	-0.8110800135896925	0.0	0.7995452267411222	-0.80460364376832	0.0	0.7605322486533685	-0.8065494006501838	0.0	0.820963682467092	-0.45533855792942285	0.0	0.8295384901268895	-0.39187034054511366	0.0	0.8461035084202818	-0.42562122337657293	0.0	0.8039953971147111	-0.4770981043769673	0.0	0.7941039943265213	-0.5463516368298355	0.0	0.8214541979631771	-0.6012482858856887	0.0	0.8292936637056191	-0.47564011394356104	0.0	0.8399142588255597	-0.5439733569922147	0.0	0.8701393197616077	-0.5978389119165789	0.0
91	3.0524109014675047	0.8119324206542299	-0.5836502996591987	0.0	0.8109034120480066	-0.5827358583432429	0.0	0.8365200157869128	-0.6847295680705725	0.0	0.8190673728991353	-0.7939267685373336	0.0	0.8489756280744173	-0.8078071572257921	0.0	0.841661454547729	-0.8121876818238793	0.0	0.810971241286582	-0.8061179331896259	0.0	0.8129224346589801	-0.5807718931209457	0.0	0.8057210799591872	-0.6842286664982323	0.0	0.771570000075687	-0.7759084596637421	0.0	0.8107132223745044	-0.7961369498886774	0.0	0.801215702351719	-0.7897672434767335	0.0	0.7619861707645075	-0.7884660780116436	0.0	0.8251704398424052	-0.4390048389618853	0.0	0.832332074268777	-0.3751546508574903	0.0	0.84785778822263	-0.40954217784727964	0.0	0.8079898350542329	-0.460663087435833	0.0	0.8006853817311602	-0.5303191167625949	0.0	0.8374241255058795	-0.5814192827861067	0.0	0.8353480793852408	-0.4591690860664805	0.0	0.8463982517249482	-0.5271892853882373	0.0	0.8796277076989742	-0.5813232897160545	0.0
